<svg width="256" height="256" viewBox="0 0 256 256" xmlns="http://www.w3.org/2000/svg" role="img" aria-labelledby="title desc">
  <title id="title">Generic Team Shield</title>
  <desc id="desc">Neutral placeholder shield for football teams</desc>
  <defs>
    <linearGradient id="shieldGradient" x1="0%" y1="0%" x2="0%" y2="100%">
      <stop offset="0%" stop-color="#d9dde4" />
      <stop offset="100%" stop-color="#9aa3b4" />
    </linearGradient>
    <linearGradient id="stripeGradient" x1="0%" y1="0%" x2="100%" y2="100%">
      <stop offset="0%" stop-color="#4a5a72" stop-opacity="0.95" />
      <stop offset="100%" stop-color="#2e3c52" stop-opacity="0.95" />
    </linearGradient>
  </defs>
  <g fill="none" fill-rule="evenodd">
    <path d="M128 240c-59-19-96-63-96-120V32l96-16 96 16v88c0 57-37 101-96 120z" fill="url(#shieldGradient)" stroke="#3a465a" stroke-width="8" stroke-linejoin="round" />
    <path d="M128 208c-43-14-72-46-72-88V56l72-12 72 12v64c0 42-29 74-72 88z" fill="url(#stripeGradient)" stroke="#273347" stroke-width="6" stroke-linejoin="round" />
    <path d="M128 176c-27-9-44-29-44-56V80l44-8 44 8v40c0 27-17 47-44 56z" fill="#f4f6f9" opacity="0.85" />
  </g>
</svg>
